<?xml version="1.0" encoding="utf-8"?>
<!-- Generator: Adobe Illustrator 24.1.2, SVG Export Plug-In . SVG Version: 6.00 Build 0)  -->
<svg version="1.1" id="Camada_1" xmlns="http://www.w3.org/2000/svg" xmlns:xlink="http://www.w3.org/1999/xlink" x="0px" y="0px"
	 viewBox="0 0 208 225.2" style="enable-background:new 0 0 208 225.2;" xml:space="preserve">
<style type="text/css">
	.st0{fill:#FFFFFF;}
</style>
<g>
	<path class="st0" d="M96.2,66c-0.6-1.9-1.3-3.8-2-5.7c0,0.1,0.1,0.2,0.1,0.3c0.5,1.5,1,3.1,1.6,4.6c0.1,0.4,0.3,0.7,0.4,1.1
		C96.3,66.2,96.3,66.1,96.2,66 M99.5,100.4c0.1-0.8,0.2-1.6,0.2-2.3C99.7,98.9,99.6,99.6,99.5,100.4 M99.9,86.8
		c0,0.7,0.1,1.4,0.1,2.1C100,88.2,100,87.5,99.9,86.8"/>
	<path class="st0" d="M140.4,192.3c0.2-0.1,0.3-0.3,0.4-0.4c0.2-0.3,0.5-0.5,0.7-0.7C141.1,191.6,140.7,191.9,140.4,192.3
		 M140.4,192.3c0.2-0.1,0.3-0.3,0.4-0.4c0.2-0.3,0.5-0.5,0.7-0.7C141.1,191.6,140.7,191.9,140.4,192.3 M140.4,192.3
		c0.2-0.1,0.3-0.3,0.4-0.4c0.2-0.3,0.5-0.5,0.7-0.7C141.1,191.6,140.7,191.9,140.4,192.3 M141.1,200.8c-0.5,0.5-1.1,0.9-1.6,1.4
		c0.8-0.6,1.5-1.2,2.2-1.9L141.1,200.8z M145.7,196.4l-0.2,0.2l0.5-0.5L145.7,196.4z M161.5,141.8c2.6,12.9,0.9,26.5-4.7,38.4
		C162.5,168.4,164.2,155,161.5,141.8 M140.4,192.3c0.2-0.1,0.3-0.3,0.4-0.4c0.2-0.3,0.5-0.5,0.7-0.7
		C141.1,191.6,140.7,191.9,140.4,192.3 M140.4,192.3c0.2-0.1,0.3-0.3,0.4-0.4c0.2-0.3,0.5-0.5,0.7-0.7
		C141.1,191.6,140.7,191.9,140.4,192.3 M140.4,192.3c0.2-0.1,0.3-0.3,0.4-0.4c0.2-0.3,0.5-0.5,0.7-0.7
		C141.1,191.6,140.7,191.9,140.4,192.3"/>
	<path class="st0" d="M203.9,113.1c-2.9-9.1-7.2-17.6-12.9-25.3c-11.8-16.1-28.9-27.6-48.3-32.5l-1.2-0.3
		c-22.7-6.2-29.1-14.1-35.7-24.4c-4.4-7-8.1-16.5-10.4-23.1L92.7,0l-3.5,7.1c-5.6,11.3-6.5,23.7-5.7,34c-0.2-0.2-0.3-0.5-0.5-0.7
		C70.2,22.9,51.4,10.9,30.1,6.8l-11-2.2l8,7.8c3,3,5.8,6.2,8.3,9.6c15.9,21.5,19.9,47.8,11.2,72.5c-11.5-4.4-24.6-6.4-38-5.8L0,89.1
		l6.6,5.5c4.5,3.8,8.5,8.3,13.1,14c9.9,12.1,12.4,24.9,15,38.4c2.8,14.1,5.6,28.8,17.1,43.5c0.3,0.4,0.7,0.9,1,1.3l-0.1,0.1
		c17.3,21.8,43.3,33.3,69.4,33.3c17.8,0,35.5-5.4,50.6-16.4C202.5,186.9,215.1,148.4,203.9,113.1 M40.9,18.1c-0.5-0.6-1-1.3-1.4-1.9
		c15.2,5.2,28.6,15,38.2,28.1c4.3,5.8,7.7,12,10.3,18.4v0.1c0.6,1.5,1.2,3.1,1.7,4.6c0.1,0.2,0.2,0.4,0.2,0.7
		c0.1,0.4,0.2,0.7,0.3,1.1c0.2,0.6,0.3,1.1,0.5,1.7c0.3,1.1,0.6,2.3,0.9,3.4c0.2,0.8,0.3,1.5,0.5,2.3c0.2,1.1,0.4,2.1,0.6,3.2
		c0.1,0.8,0.2,1.5,0.3,2.3l0.3,3c0.2,1.9,0.2,3.9,0.2,5.8V94c0,1-0.1,2-0.2,3l-0.6,5.7v0.3c-0.7,2.4-4.2,15.2-4.8,29
		c-0.4-0.7-0.8-1.4-1.3-2.2c-1.3-2.1-2.7-4.2-4.1-6.1c-1.6-2.2-3.3-4.3-5-6.3c-0.5-0.6-1-1.1-1.5-1.7c-0.1-0.1-0.2-0.3-0.4-0.4
		c-0.5-0.6-1.1-1.2-1.7-1.8l-1.8-1.8l-1.1-1.1c-0.6-0.6-1.2-1.1-1.7-1.7c-1-0.9-2.1-1.8-3.1-2.8c-0.5-0.4-1-0.8-1.4-1.2
		c-2.6-2.1-5.2-3.9-7.9-5.6c-0.7-0.4-1.4-0.9-2.2-1.3c-0.5-0.3-1.1-0.7-1.7-0.9C62.5,70.3,58.2,41.6,40.9,18.1 M41.4,145.8
		c-2.7-13.7-5.5-27.9-16.4-41.3c-2.7-3.3-5.2-6.3-7.8-9c10.8,0.4,21,2.7,30.1,6.6c0,0,0.1,0,0.1,0.1c1.5,0.7,3.1,1.6,4.6,2.5
		c0.4,0.2,0.9,0.5,1.3,0.8c1.3,0.8,2.6,1.7,3.9,2.6c0.6,0.4,1.3,0.9,1.9,1.4c2.2,1.7,4.3,3.5,6.4,5.5c0.3,0.3,0.7,0.6,1,1
		c1.2,1.2,2.4,2.4,3.6,3.7s2.3,2.6,3.5,4c1.1,1.4,2.2,2.8,3.3,4.3c1.5,2,2.9,4.2,4.3,6.5c0.3,0.6,0.7,1.1,1,1.7
		c2,3.5,5.3,11.1,7.5,16.6c1.2,4.1,2.9,7.5,5.1,10.2c13,16.2,35.3,20,50.9,8.5c4.1-3.1,7.5-6.9,9.9-11.3c0-0.1,0.1-0.2,0.1-0.2
		c-0.8,7.3-3,14.3-6.6,20.7c-0.5,0.9-1,1.8-1.6,2.7c-0.6,1-1.3,2-2,2.9c-1,1.4-2,2.7-3.1,3.9l-0.4,0.4c-0.2,0.2-0.4,0.4-0.6,0.7
		c-0.2,0.2-0.4,0.5-0.7,0.7c-0.1,0.1-0.3,0.3-0.5,0.4l-1.1,1.1l-0.6,0.6l-0.5,0.4c-0.2,0.2-0.5,0.4-0.7,0.6l-0.8,0.6
		c0,0-0.1,0-0.1,0.1c-0.4,0.3-0.8,0.6-1.2,1c-0.6,0.4-1.1,0.9-1.7,1.3s-1.2,0.9-1.8,1.3c-0.2,0.1-0.3,0.2-0.5,0.4l-0.9,0.6
		c0,0-0.1,0-0.1,0.1c-0.3,0.2-0.6,0.4-1,0.6l-0.3,0.2c-8.5,5.1-18.1,7.7-27.9,7.7c-4.2,0-8.4-0.5-12.6-1.4
		c-9.7-2.3-18.6-7.2-25.9-14.5l-0.7-0.7c-0.1-0.1-0.1-0.2-0.2-0.2c-1.7-1.7-3.2-3.5-4.7-5.5C46.7,173,44,159.2,41.4,145.8
		 M127.5,112.1l1.8,0.6h0.1c8.5,2.9,14.5,6.8,17.9,11.3c1.9,2.6,3.4,5.4,4.4,8.4c4.4,12.5,0.4,26-9.8,33.5
		c-12.7,9.3-31,6.1-41.7-7.3c-1.9-2.3-3.3-5.5-4.3-9.2l-0.1-0.4c-3.6-14.7,0.8-35,2.6-42C103.6,107.3,116,108.5,127.5,112.1
		 M98.9,104.6L98.9,104.6L98.9,104.6z M99.9,86.8l0.9,1.2c0.8,1,1.5,2.1,2.4,3c0.7,0.9,1.4,1.7,2.1,2.6c2.6,3,5.5,5.8,8.5,8.4h-0.1
		c-5.8-0.9-10.9-1.4-14.2-1.6c0.1-0.8,0.2-1.6,0.2-2.3c0.1-0.8,0.1-1.6,0.2-2.3c0-0.7,0.1-1.4,0.1-2.1V89
		C100,88.2,100,87.6,99.9,86.8 M168.8,203.4c-20.2,14.9-45.8,18.6-68.9,12.1h1.4c11,0,21.8-2.9,31.3-8.6l0.3-0.2
		c0.6-0.4,1.3-0.8,1.9-1.2c0.1,0,0.2-0.1,0.3-0.2c0.9-0.6,1.8-1.2,2.6-1.8c0.6-0.4,1.1-0.9,1.7-1.3s1.1-0.9,1.6-1.4l0.6-0.5l0.3-0.2
		l0.8-0.7l0.5-0.5l0.6-0.6l1.6-1.6c0.1-0.1,0.1-0.2,0.2-0.2l0.3-0.3v-0.1c0.2-0.2,0.5-0.5,0.7-0.8l0.4-0.4l0.3-0.4
		c1.3-1.5,2.5-3,3.6-4.6l1.5-2.1l1.5-2.4c0.4-0.6,0.7-1.2,1-1.8s0.6-1.1,0.9-1.7c0.3-0.5,0.5-1.1,0.8-1.6
		c5.6-11.9,7.3-25.5,4.7-38.4c-0.2-1-0.4-2-0.7-3c-0.3-1.2-0.7-2.5-1.1-3.7c-0.1-0.4-0.2-0.8-0.4-1.2c-0.2-0.7-0.5-1.3-0.7-2
		c-0.1-0.3-0.2-0.6-0.4-1c-0.1-0.3-0.2-0.6-0.4-0.9c-1.2-3.6-3-6.9-5.2-10c-4.1-5.6-11.1-10.2-20.7-13.6h-0.1
		c-0.6-0.3-1.1-0.7-1.7-1c-0.6-0.4-1.2-0.7-1.9-1.1c-1.2-0.7-2.4-1.5-3.6-2.4c-2.9-2-5.7-4.3-8.4-6.7c-0.6-0.5-1.1-1-1.6-1.5
		s-1.1-1-1.5-1.5c-1.5-1.5-2.9-3.1-4.3-4.8c-0.9-1.1-1.8-2.2-2.6-3.4c-0.6-0.9-1.3-1.8-1.9-2.7l-1.4-2.1c-0.4-0.6-0.8-1.3-1.2-1.9
		c-0.7-1.1-1.3-2.3-2-3.5l-1.8-3.6c-0.4-0.8-0.8-1.6-1.1-2.5c-0.2-0.5-0.4-0.9-0.6-1.4c-0.1-0.4-0.3-0.7-0.4-1.1
		c-0.6-1.5-1.1-3-1.6-4.6c0-0.1-0.1-0.2-0.1-0.3v-0.1c-2-6.1-7.1-24.6-2-42.3c2.2,5.4,4.9,11.3,8,16.2c2.9,4.5,5.8,8.4,9.2,11.8
		c3.5,3.4,7.6,6.4,12.8,9l18.1,6.6l4.3,1.2c16.4,5,30.9,15.2,41.1,29c5.2,7.1,9.2,15,11.9,23.4C207.8,147.7,196.3,183.1,168.8,203.4
		"/>
	<path class="st0" d="M99,104.5L99,104.5L99,104.5z"/>
	<path class="st0" d="M93.1,85.1c0.1,1.9,0.2,3.9,0.2,5.8C93.3,89,93.3,87.1,93.1,85.1 M89.8,68.1c0-0.2-0.1-0.5-0.2-0.7v0.1
		c0.2,0.6,0.4,1.1,0.5,1.7C90.1,68.8,90,68.4,89.8,68.1 M96.2,66c-0.1-0.2-0.2-0.5-0.3-0.8c0.1,0.4,0.3,0.7,0.4,1.1
		c0.2,0.5,0.4,0.9,0.6,1.4C96.7,67.1,96.4,66.5,96.2,66 M116.3,95.3c2.6,2.5,5.4,4.7,8.4,6.7C121.7,100,119,97.7,116.3,95.3
		 M98.9,104.5L98.9,104.5L98.9,104.5z"/>
	<path class="st0" d="M89.8,68.1c-0.1-0.2-0.2-0.4-0.2-0.6v-0.1c-0.6-1.5-1.1-3.1-1.6-4.6c0.6,1.5,1.2,3.1,1.7,4.6
		C89.7,67.6,89.8,67.8,89.8,68.1"/>
	<path class="st0" d="M113.8,102.1L113.8,102.1c-3.1-2.6-5.9-5.4-8.5-8.4C107.9,96.6,110.8,99.5,113.8,102.1"/>
	<path class="st0" d="M155.7,159.8c-0.8,7.3-3,14.3-6.6,20.7c3.5-6.3,5.6-13.3,6.4-20.4C155.6,160,155.7,159.9,155.7,159.8"/>
	<path class="st0" d="M62.8,192.8c-0.2-0.2-0.5-0.4-0.7-0.7C62.3,192.4,62.5,192.6,62.8,192.8"/>
</g>
</svg>
