<?xml version="1.0" encoding="utf-8"?>
<!-- Generator: Adobe Illustrator 24.1.2, SVG Export Plug-In . SVG Version: 6.00 Build 0)  -->
<svg version="1.1" id="Camada_1" xmlns="http://www.w3.org/2000/svg" xmlns:xlink="http://www.w3.org/1999/xlink" x="0px" y="0px"
	 viewBox="0 0 330.4 60" style="enable-background:new 0 0 330.4 60;" xml:space="preserve">
<style type="text/css">
	.st0{fill:#FFFFFF;}
</style>
<g>
	<path class="st0" d="M0,58.6V4.3h16.5v54.2L0,58.6L0,58.6z"/>
	<path class="st0" d="M38.5,28.2c3.2-6.4,9.6-9,17.2-9c12.5,0,17.6,8,17.6,15.2v24.2H58.5V38.4c0-6.2-3-8.8-7.6-8.8
		c-6.2,0-12.4,4.7-12.4,13.7v15.4H23.7V20h14.8V28.2z"/>
	<path class="st0" d="M80.1,58.6V4.3h33.5c17.8,0,24.6,7.6,24.6,16.3c0,7.7-5.1,17.1-24.8,17.1H96.5v20.9H80.1z M96.4,14.6v12.9
		h12.8c7.4,0,11.5-2,11.5-6.7s-4-6.2-11.4-6.2L96.4,14.6z"/>
	<path class="st0" d="M136.1,48.6c0-11.9,15.7-14.2,34.2-15v-1c0-3.6-2.9-5.9-9.7-5.9c-5.9,0-9.4,2.1-9.4,5.4h-12.7
		c0-4.5,3.7-13.4,24.5-13.4c18.7,0,22.1,7.8,22.1,14.8v12.8c0,3.1,0.7,4.7,4.9,4.7c2.1,0,5.1-0.9,5.1-0.9V58
		c-6.1,1.7-8.4,1.7-11.2,1.7c-7.4,0-11.8-2-13.6-6.9c-5.3,4.9-12.9,7.2-19.9,7.2C141.2,60,136.1,54.5,136.1,48.6 M170.3,39.7
		c-8.5,0.5-18.1,0.5-18.1,6.3c0,2.4,2.7,4.5,6,4.5c3.9,0,10.4-1.8,12.1-6.9V39.7z"/>
	<path class="st0" d="M244.2,44.7c-1.4,4.6-7.4,15.3-25.6,15.3c-15.8,0-26.1-8.2-26.1-20.7c0-11.7,10.6-20.6,26-20.6
		c17.8,0,24.3,9.7,25.5,15.2h-16c-1.3-3.9-4.5-5.7-9.6-5.7c-5.5,0-10.3,3.5-10.3,11.7c0,7.6,4.7,11.1,10.2,11.1c5,0,8.7-2,10.6-6.3
		H244.2z"/>
	<path class="st0" d="M266.1,45.1c0,4,0.8,5.7,6.3,5.7c1.6,0,4-0.2,6.1-0.8v8.3c-3,0.8-7.1,1.4-12.1,1.4c-9.9,0-15.1-3.6-15.1-9.4
		V29.9h-9.7V20h10.1l2.7-14h11.7v14h12.5v9.8h-12.5V45.1z"/>
	<path class="st0" d="M304.5,18.7c16.2,0,25.9,8.8,25.9,20.5c0,12.9-12,20.9-25.9,20.9c-16.5,0-25.7-10.2-25.7-20.8
		C278.8,27.8,289.1,18.7,304.5,18.7 M314.7,39.1c0-6.5-3.7-10.9-10.1-10.9s-10.1,4.2-10.1,11c0,6.3,3,11.3,10.1,11.3
		C311.2,50.5,314.7,45.4,314.7,39.1"/>
</g>
</svg>
